<svg width="89" height="87" viewBox="0 0 89 87" fill="none" xmlns="http://www.w3.org/2000/svg">
<g clip-path="url(#clip0_47_149)">
<path d="M46.223 38.9888L49.5019 38.8675L46.7514 47.8086H52.6331L55.3839 38.8675L58.5882 38.9888L59.8941 34.7433H47.5292L46.223 38.9888ZM34.0437 41.3107C33.2214 45.5041 28.7143 48.0165 23.7769 48.0165C18.8396 48.0165 15.3179 45.5041 16.1406 41.3107C16.9458 37.2039 21.505 34.5355 26.421 34.5355C31.3369 34.5355 34.8494 37.2039 34.0437 41.3107ZM22.0516 41.3799C21.7593 42.8703 22.8038 43.8926 24.5856 43.8926C26.3675 43.8926 27.813 42.8703 28.1052 41.3799C28.3772 39.9938 27.4456 38.8327 25.578 38.8327C23.7103 38.8327 22.3235 39.9938 22.0516 41.3799Z" fill="#CF4044"/>
<path d="M32.2156 46.8208C33.8942 47.5659 36.1672 48.0165 38.2066 48.0165C41.7058 48.0165 45.5287 46.4745 46.1406 43.3555C46.5755 41.1374 44.9831 40.063 42.5813 39.6125L41.2979 39.37C40.8641 39.2834 40.1479 39.214 40.243 38.7287C40.3484 38.1916 41.1303 38.0356 41.6454 38.0356C42.9119 38.0356 43.9647 38.4687 44.8648 39.0233L47.1093 35.679C45.6737 34.8994 44.0492 34.5353 42.203 34.5353C38.6824 34.5353 34.8435 36.2682 34.2351 39.3698C33.8341 41.4145 35.5521 42.506 37.7846 42.8354L38.9311 43.0086C39.4508 43.0952 40.2134 43.1473 40.098 43.7363C39.9824 44.3257 39.0219 44.5161 38.4423 44.5161C37.09 44.5161 35.9287 43.9788 35.0061 43.3204L34.743 43.1298L32.2156 46.8208ZM71.3446 35.0726C70.1675 34.726 68.8308 34.5355 67.5001 34.5355C62.756 34.5355 58.4441 37.5851 57.6964 41.3973C56.9657 45.1228 60.0045 48.0165 64.6198 48.0165C65.6718 48.0165 67.892 47.8606 68.9079 47.4968L70.0382 42.6102C68.9475 43.3555 67.7822 43.8231 66.4299 43.8231C64.6697 43.8231 63.3629 42.7142 63.6449 41.2759C63.9236 39.8552 65.5829 38.7289 67.3431 38.7289C68.6742 38.7289 69.7361 39.3353 70.541 40.0457L71.3446 35.0726ZM80.762 34.5355C75.8463 34.5355 71.2869 37.2041 70.4816 41.3107C69.6591 45.5041 73.1806 48.0165 78.1182 48.0165C83.0557 48.0165 87.5627 45.5041 88.385 41.3107C89.1904 37.2039 85.678 34.5355 80.762 34.5355ZM79.9192 38.8327C81.7868 38.8327 82.7184 39.9938 82.4464 41.3799C82.1543 42.8703 80.7087 43.8926 78.9269 43.8926C77.1453 43.8926 76.1007 42.8703 76.3928 41.3799C76.6648 39.9938 78.0516 38.8327 79.9192 38.8327ZM17.6574 32.1399C16.1892 31.7211 14.5222 31.4906 12.8623 31.4906C6.94519 31.4906 1.56747 35.1771 0.635015 39.7852C-0.276028 44.2885 3.51403 47.7865 9.27042 47.7865C10.5825 47.7865 13.3513 47.5979 14.6184 47.158L16.0279 41.2514C14.6677 42.1518 13.2145 42.7174 11.5278 42.7174C9.3323 42.7174 7.70254 41.3769 8.05437 39.6385C8.40202 37.921 10.4712 36.5594 12.6667 36.5594C14.3266 36.5594 15.651 37.2926 16.6551 38.1512L17.6574 32.1399Z" fill="#CF4044"/>
<path d="M30.4552 49.5433L30.6802 53.048H30.737C30.8535 52.6899 30.9825 52.316 31.1636 51.9654L32.3883 49.5433H34.3786L34.6794 53.048H34.7362C34.84 52.7055 34.9565 52.3472 35.1158 52.0123L36.3117 49.5433H39.0128L35.3602 55.4159H33.0952L32.8955 52.2224H32.8102C32.7233 52.5261 32.6472 52.8222 32.5064 53.1103L31.3421 55.4159H29.1339L27.7634 49.5433H30.4552Z" fill="#2360A5"/>
<path d="M38.823 49.5433H41.325L40.9438 51.5216H42.536L42.9172 49.5433H45.4192L44.2875 55.4161H41.7857L42.1789 53.3752H40.5869L40.1935 55.4161H37.6915L38.823 49.5433Z" fill="#2360A5"/>
<path d="M52.7456 52.4953C52.3824 54.3801 50.3926 55.5094 48.2129 55.5094C46.0332 55.5094 44.4786 54.3801 44.8418 52.4953C45.1975 50.6493 47.2104 49.4498 49.3805 49.4498C51.5508 49.45 53.1013 50.6493 52.7456 52.4953ZM47.4516 52.5264C47.3224 53.1962 47.7836 53.6558 48.5702 53.6558C49.3568 53.6558 49.9951 53.1963 50.1239 52.5264C50.244 51.9034 49.8329 51.3815 49.0084 51.3815C48.1839 51.3815 47.5715 51.9034 47.4516 52.5264ZM53.3145 49.5434H55.9113L55.1427 53.531H57.3226L56.9596 55.4162H52.1831L53.3145 49.5434ZM63.4655 53.3132L63.5818 53.3988C63.989 53.6948 64.5017 53.9362 65.0987 53.9362C65.3545 53.9362 65.7786 53.8505 65.8296 53.5858C65.8806 53.3211 65.544 53.2978 65.3144 53.2588L64.8082 53.1808C63.8226 53.0329 63.0643 52.5422 63.2412 51.6231C63.5098 50.2289 65.2047 49.45 66.7589 49.45C67.5742 49.45 68.2911 49.6134 68.9251 49.9638L67.9342 51.4671C67.5368 51.2178 67.0719 51.0232 66.5129 51.0232C66.2854 51.0232 65.9403 51.0934 65.8936 51.3346C65.8517 51.553 66.168 51.5839 66.3594 51.623L66.9261 51.7318C67.9862 51.9344 68.6894 52.4173 68.4972 53.4141C68.227 54.8161 66.5392 55.5092 64.9944 55.5092C64.094 55.5092 63.0906 55.3068 62.3498 54.972L63.4655 53.3132Z" fill="#2360A5"/>
<path d="M72.3868 53.2897L72.2832 52.2538C72.2555 52.0045 72.2574 51.7477 72.2582 51.4984H72.1635L71.3444 53.2897H72.3868ZM70.1258 55.4161H67.3774L70.992 49.5436H73.8634L75.2814 55.4161H72.5331L72.4373 54.6838H70.4755L70.1258 55.4161Z" fill="#2360A5"/>
<path d="M76.1954 49.5433H78.7919L78.0237 53.5309H80.2036L79.8403 55.4161H75.0637L76.1954 49.5433ZM81.4541 49.5433H86.2592L85.95 51.1477H83.7608L83.6527 51.7086H85.6524L85.3583 53.2351H83.3586L83.2475 53.8116H85.5125L85.2033 55.4161H80.3228L81.4541 49.5433Z" fill="#2360A5"/>
<path d="M1.04602 55.4252H28.5767L28.5749 55.4161H28.5522L28.2037 53.9227H1.04602V55.4252ZM1.04602 53.2913H28.0564L27.7056 51.7886H1.04602V53.2913ZM1.04602 51.1472H27.5472L27.4282 50.5997L27.1843 49.5552H1.04602V51.1472Z" fill="#2360A5"/>
<path d="M58.5735 49.5433H63.3782L63.0692 51.1477H60.8798L60.7719 51.7086H62.7714L62.4773 53.2351H60.4777L60.3665 53.8116H62.6317L62.3225 55.4161H57.4418L58.5735 49.5433Z" fill="#2360A5"/>
</g>
<defs>
<clipPath id="clip0_47_149">
<rect width="88" height="87" fill="white" transform="translate(0.5)"/>
</clipPath>
</defs>
</svg>
