<svg width="87" height="88" viewBox="0 0 87 88" fill="none" xmlns="http://www.w3.org/2000/svg">
<g clip-path="url(#clip0_22_113)">
<path d="M0.5 0.0629883H86.5V87.063H0.5V0.0629883Z" fill="white"/>
<path d="M43.757 29.9088C44.3248 29.9357 44.8671 30.1551 45.2967 30.5317C45.8821 31.0923 46.0355 32.027 45.7585 32.7749C44.6814 35.0176 42.12 36.5157 40.3697 37.0112C39.3226 37.2604 37.9989 37.2604 37.0441 36.8867C36.5818 37.167 36.1919 38.0728 35.6275 37.6964C34.8106 37.051 35.5178 36.0408 35.0462 35.3241C34.9489 35.1765 34.704 35.1657 34.5808 34.9242C33.9339 33.4912 34.7347 32.1204 35.6275 31.0304C37.1159 29.3505 41.3861 27.4788 43.757 29.9088ZM38.7993 31.03C37.9676 31.1857 37.0285 31.5517 36.5207 32.1516C36.0126 32.751 35.6895 33.3355 35.9974 33.9583C37.0753 33.1486 37.5986 32.027 38.7997 31.3419C38.7993 31.2168 38.984 31.1234 38.7993 31.03ZM43.819 31.3419C41.694 31.1546 40.0927 32.7749 38.5838 34.332C38.4914 34.5812 37.9373 34.8615 38.3683 35.1418C40.401 35.3286 42.3409 34.7374 43.819 33.3662C44.2504 32.9613 44.5574 32.4319 44.3428 31.8708C44.2504 31.6533 44.0332 31.4353 43.819 31.3419ZM62.2325 40.6247C63.218 43.0548 64.0492 46.8858 62.2325 49.2225C61.7399 49.783 60.8779 50.2998 60.3238 49.8765C58.2911 48.2259 57.4296 45.8581 56.1669 43.7395C55.9822 43.6461 55.9822 43.8956 55.8899 43.9891C55.4281 46.1384 56.2901 48.9422 54.8432 50.6239C54.289 50.7173 53.7706 50.4289 53.5805 49.8765C52.872 47.6649 53.6104 45.3594 53.7951 43.1478C54.2266 42.0262 54.4113 40.7182 55.3661 39.8768C56.9058 40.4997 57.6446 42.2446 58.5369 43.5219C59.1843 44.4874 59.7072 45.5778 60.4461 46.4498C61.0925 46.1695 60.7744 45.3147 60.7543 44.7988C60.5072 42.774 59.953 40.905 59.4292 38.9737C59.3994 38.4754 59.1223 37.6341 59.6447 37.3227C61.0323 37.946 61.6163 39.4097 62.2325 40.6247ZM52.9332 39.8768C52.9332 40.3444 52.5637 40.9285 52.255 40.9984C49.2992 41.4656 46.0043 41.1853 43.2332 42.1196C43.1408 42.4622 43.5411 42.5245 43.7565 42.6179C46.127 42.9916 48.6219 43.085 50.9317 43.6772C52.1528 43.9909 52.595 45.4533 52.6873 46.6678C52.744 47.6256 52.3799 48.786 51.4555 49.4405C49.1774 50.9046 45.6978 50.8419 43.3876 49.5032C42.5046 49.0022 41.6632 48.1952 41.6016 47.1982C41.6069 46.4065 41.9407 45.7832 42.4948 45.4848C44.7122 44.5812 47.4525 45.0804 49.3621 46.2323C49.4843 46.8556 48.8178 46.8217 48.4988 47.0424C46.3737 48.2886 44.7729 45.6415 42.8022 46.606C42.5251 46.7929 42.3248 47.3142 42.6483 47.4784C45.0807 48.5689 47.7907 47.7899 50.1924 47.1047C50.4695 47.0113 50.8086 46.731 50.8389 46.4507C50.7465 45.4537 49.6383 45.2362 48.9298 44.9559C46.8359 44.4264 44.5266 44.4264 42.2784 44.2084C41.8474 44.115 41.2982 43.8112 41.1702 43.461C40.9239 42.7136 40.9239 41.6854 41.478 41.0625C44.3415 38.5079 48.683 38.7264 52.3166 39.4115C52.5633 39.5031 52.8404 39.5966 52.9332 39.8768ZM39.477 41.0607C39.754 44.0509 39.908 46.824 39.8464 49.9699C39.7848 50.3743 39.3231 50.4682 39.0152 50.6239C38.5226 50.7173 37.886 50.6113 37.691 50.3436C36.9829 49.1904 37.2292 47.6337 37.1677 46.2318C37.26 44.0207 37.2292 41.6218 37.8454 39.5654C37.9632 39.2666 38.3071 39.0048 38.5842 39.1913C39.3231 39.5654 39.4462 40.3133 39.477 41.0607ZM73.6885 40.6247C73.8366 40.8766 73.9915 41.2656 73.6885 41.4345C72.3027 42.0573 70.4249 41.777 68.8232 41.9639C68.3922 42.3376 68.0531 42.9605 68.2066 43.5215C68.3614 43.6149 68.4992 43.7571 68.6692 43.739C69.6539 43.8018 71.1325 43.2719 71.7799 44.2062C71.9378 44.4842 71.7584 45.5223 71.3181 45.5458C70.1166 45.7024 68.141 45.3932 67.5605 45.7024C66.8217 46.2007 66.8828 47.1661 66.6057 47.9456C67.1295 48.2882 67.6779 47.9375 68.2989 47.8517C69.4393 47.6649 70.7019 47.3223 71.8405 47.5714C72.056 47.9763 72.3643 48.4127 72.1484 48.911C70.2071 50.4686 67.7033 52.065 65.0357 50.9358C64.0345 50.4817 63.5884 48.9422 63.9274 47.6346C64.1425 46.6999 65.0968 45.7967 64.5124 44.7997C64.42 44.3632 64.6667 43.99 65.0361 43.8965C66.052 43.8965 65.8361 42.6192 66.3599 42.0271C65.775 41.3731 64.2973 41.4042 64.4512 40.0958C65.1597 39.722 66.0222 39.8466 66.8217 39.722C68.6384 39.3479 70.6707 39.1299 72.5196 39.3479C72.8877 39.4228 73.3807 40.1576 73.6885 40.6247ZM29.7155 33.5223C32.557 35.872 36.2437 39.8773 35.7819 44.4874C35.2273 48.1325 31.4091 50.8735 28.1758 51.7459C25.0348 52.6802 21.0934 52.5868 17.8904 51.8394C17.6749 52.4315 17.4594 53.1474 16.7822 53.397C16.3512 53.5527 15.7966 53.4593 15.458 53.179C14.5036 52.2754 15.2733 50.5309 13.8875 49.9708C11.1775 48.818 8.25203 46.5437 6.86671 43.7404C6.682 43.1798 6.89749 42.6192 7.23613 42.1832C9.36119 40.4699 12.0399 39.7848 14.7191 39.2549C14.873 39.3172 14.8115 39.0992 14.9346 39.0369C15.0885 37.1679 15.1501 35.2672 15.735 33.5851C15.8684 33.349 16.1968 33.2736 16.4127 33.4293C18.1064 34.7374 17.3055 37.199 18.0448 38.9742C21.2781 39.1299 24.5114 39.2856 27.067 41.1239C27.9295 41.8402 28.1396 43.2082 27.8675 43.99C27.5957 44.7704 26.6976 45.3296 25.866 45.391C25.3114 45.391 24.2647 45.4456 24.3263 45.0177C24.3879 44.5894 26.21 43.8884 25.6505 43.3039C24.8461 42.464 20.8213 41.9643 18.3268 41.6529C18.0189 41.5906 17.7365 41.684 17.7365 42.0266C17.6749 44.3939 17.4902 47.0104 17.8904 49.2852C17.9212 49.4414 18.1059 49.6282 18.2603 49.6585C22.6634 50.3752 27.3133 49.9699 30.7621 47.4157C32.3634 46.1082 32.8872 44.2689 32.6097 42.2446C31.2239 36.6064 25.4042 33.2104 20.6312 31.03C15.9818 28.9741 10.8389 27.9148 5.32701 28.1955C4.44941 28.2605 3.05873 28.567 3.04847 28.8811C3.03821 29.1953 4.62386 29.0964 4.4338 29.6908C4.24418 30.2848 2.63265 29.9323 2.15526 29.7843C1.67787 29.6362 1.72427 28.9429 1.84741 28.5069C3.04847 26.3576 6.40002 26.1839 7.91384 26.1085C16.2892 25.89 24.3883 29.1167 29.7155 33.5223ZM14.6268 41.8709C12.5017 41.902 10.254 42.12 8.28326 42.8675C7.88306 43.0232 7.39005 43.4592 7.6979 43.9891C8.49831 45.0791 9.64316 45.9741 10.7157 46.6055C11.7883 47.2361 13.2102 48.0386 14.5036 48.2259C14.8115 46.2007 14.8115 44.2071 14.7807 42.12C14.6571 42.0578 14.7802 41.9332 14.6268 41.8709ZM78.2759 39.036C78.1836 41.7459 75.6887 43.4285 75.6887 46.1384C75.781 46.2318 75.8435 46.3564 75.9657 46.295C77.9681 44.083 79.9383 40.9366 82.8638 40.0023C83.6348 39.94 84.3312 40.6175 84.6194 41.1239C85.6358 43.1798 85.3904 46.077 83.9734 47.946C82.5113 49.7808 79.9696 51.6218 77.0762 51.3099C75.8756 54.3006 75.0426 57.4469 74.5808 60.7178C74.3346 61.3718 73.7501 60.7801 73.3807 60.6555C70.8866 58.6619 72.9345 53.3843 73.1036 52.7109C73.2727 52.0393 73.9402 50.4551 74.4283 49.1286C73.258 47.0109 73.9968 44.4558 74.9512 42.4933C75.69 41.1849 76.7072 39.8764 77.9079 38.8798C78.0604 38.8803 78.1836 38.9114 78.2759 39.036ZM83.2346 42.4003C82.8651 42.338 82.7108 42.8368 82.4034 42.9302C80.9873 44.5501 79.5703 46.17 78.8617 48.1013C79.817 48.2259 80.6169 47.603 81.449 47.2604C82.8651 46.3568 83.7584 44.8624 83.666 43.1487C83.604 42.8675 83.3577 42.6495 83.2346 42.4003Z" fill="#1A8FE9"/>
</g>
<defs>
<clipPath id="clip0_22_113">
<rect width="86" height="87" fill="white" transform="translate(0.5 0.0629883)"/>
</clipPath>
</defs>
</svg>
