<?xml version="1.0" encoding="UTF-8" standalone="no"?>
<!DOCTYPE svg PUBLIC "-//W3C//DTD SVG 1.1//EN" "http://www.w3.org/Graphics/SVG/1.1/DTD/svg11.dtd">
<svg width="100%" height="100%" viewBox="0 0 145 142" version="1.1" xmlns="http://www.w3.org/2000/svg" xmlns:xlink="http://www.w3.org/1999/xlink" xml:space="preserve" xmlns:serif="http://www.serif.com/" style="fill-rule:evenodd;clip-rule:evenodd;stroke-linejoin:round;stroke-miterlimit:2;">
    <g transform="matrix(1,0,0,1,-99.509,-106.499)">
        <g transform="matrix(92.5806,105.481,-105.481,92.5806,126.809,121.546)">
            <path d="M0.88,0.361C0.82,0.43 0.745,0.479 0.664,0.506C0.499,0.562 0.31,0.531 0.17,0.408C-0.039,0.224 -0.06,-0.094 0.123,-0.303C0.307,-0.512 0.625,-0.533 0.834,-0.349C0.906,-0.287 0.955,-0.208 0.982,-0.124C0.986,-0.11 0.99,-0.096 0.993,-0.082C1.024,0.054 0.998,0.201 0.912,0.321C0.912,0.321 0.912,0.321 0.912,0.322C0.903,0.334 0.893,0.346 0.883,0.358C0.883,0.359 0.88,0.361 0.88,0.361ZM0.254,-0.025C0.254,-0.023 0.252,-0.016 0.252,-0.014C0.252,-0.014 0.252,-0.013 0.252,-0.012C0.251,-0.01 0.25,-0.003 0.25,-0.001C0.25,0.001 0.249,0.016 0.249,0.017C0.248,0.019 0.248,0.025 0.248,0.026C0.248,0.028 0.249,0.04 0.249,0.042C0.249,0.043 0.249,0.051 0.25,0.054C0.249,0.054 0.25,0.054 0.25,0.055C0.25,0.057 0.251,0.064 0.251,0.066C0.251,0.066 0.251,0.066 0.251,0.066C0.251,0.069 0.252,0.072 0.252,0.075C0.253,0.078 0.254,0.082 0.254,0.085C0.255,0.087 0.258,0.099 0.259,0.101C0.259,0.101 0.259,0.102 0.259,0.102C0.26,0.105 0.261,0.108 0.262,0.11C0.264,0.117 0.266,0.123 0.269,0.129C0.269,0.131 0.27,0.133 0.271,0.135C0.272,0.136 0.272,0.136 0.272,0.137C0.272,0.137 0.272,0.137 0.272,0.137L0.272,0.137C0.273,0.14 0.274,0.142 0.276,0.144C0.279,0.15 0.282,0.155 0.285,0.161C0.287,0.164 0.289,0.166 0.29,0.169C0.292,0.171 0.296,0.177 0.296,0.178C0.298,0.18 0.304,0.188 0.306,0.19C0.307,0.192 0.313,0.198 0.315,0.2C0.316,0.202 0.318,0.204 0.319,0.205C0.32,0.206 0.32,0.206 0.32,0.206C0.322,0.208 0.324,0.21 0.326,0.212C0.327,0.213 0.328,0.213 0.328,0.214C0.33,0.216 0.332,0.218 0.335,0.22C0.44,0.312 0.6,0.302 0.693,0.196C0.727,0.157 0.747,0.11 0.753,0.062C0.764,-0.019 0.735,-0.103 0.669,-0.161C0.668,-0.163 0.666,-0.164 0.664,-0.166C0.662,-0.168 0.654,-0.174 0.653,-0.174C0.652,-0.175 0.647,-0.179 0.645,-0.18C0.642,-0.183 0.632,-0.188 0.631,-0.189C0.63,-0.19 0.629,-0.19 0.628,-0.191C0.627,-0.192 0.625,-0.193 0.623,-0.194C0.62,-0.196 0.61,-0.2 0.609,-0.201C0.604,-0.203 0.6,-0.205 0.595,-0.207C0.593,-0.208 0.586,-0.21 0.584,-0.211C0.581,-0.212 0.568,-0.216 0.567,-0.216L0.561,-0.218C0.552,-0.22 0.544,-0.221 0.535,-0.222C0.533,-0.223 0.523,-0.224 0.52,-0.224C0.517,-0.224 0.507,-0.224 0.505,-0.224C0.496,-0.225 0.487,-0.224 0.478,-0.223C0.476,-0.223 0.471,-0.223 0.47,-0.222C0.467,-0.222 0.456,-0.22 0.454,-0.22C0.452,-0.22 0.45,-0.219 0.448,-0.219C0.44,-0.217 0.432,-0.215 0.423,-0.212C0.422,-0.212 0.416,-0.209 0.414,-0.209C0.41,-0.207 0.406,-0.206 0.402,-0.204C0.401,-0.203 0.387,-0.197 0.386,-0.197C0.384,-0.196 0.378,-0.192 0.377,-0.192C0.373,-0.19 0.37,-0.188 0.366,-0.185L0.366,-0.185C0.364,-0.184 0.356,-0.179 0.355,-0.177C0.354,-0.177 0.344,-0.169 0.342,-0.168C0.338,-0.164 0.333,-0.16 0.328,-0.155C0.326,-0.154 0.319,-0.147 0.317,-0.145C0.298,-0.122 0.282,-0.097 0.269,-0.071C0.269,-0.071 0.269,-0.071 0.269,-0.071C0.266,-0.065 0.264,-0.058 0.262,-0.052L0.262,-0.052L0.262,-0.052C0.259,-0.043 0.256,-0.034 0.254,-0.025Z" style="fill:url(#_Linear1);fill-rule:nonzero;"/>
        </g>
        <g transform="matrix(1,0,0,-1,0,354.369)">
            <g opacity="0.3">
                <g transform="matrix(1,0,0,1,170.365,122.692)">
                    <path d="M0,89.453C-19.42,89.453 -35.166,73.708 -35.166,54.287C-35.166,34.867 -19.42,19.122 0,19.122C19.42,19.122 35.165,34.867 35.165,54.287C35.165,73.708 19.42,89.453 0,89.453M0,-14.909C-32.936,-14.909 -59.636,11.791 -59.636,44.726C-59.636,77.662 -32.936,104.362 0,104.362C32.936,104.362 59.635,77.662 59.635,44.726C59.635,11.791 32.936,-14.909 0,-14.909" style="fill:white;fill-rule:nonzero;"/>
                </g>
            </g>
        </g>
        <g transform="matrix(56.3766,50.5647,-50.5647,56.3766,193.036,280.181)">
            <path d="M-0.5,-0.125C-0.5,-0.125 -0.506,-0.119 -0.507,-0.118C-0.644,0.001 -0.815,0.057 -0.983,0.053C-1.168,0.048 -1.351,-0.03 -1.484,-0.179C-1.664,-0.379 -1.707,-0.656 -1.617,-0.892C-1.601,-0.934 -1.581,-0.975 -1.557,-1.013C-1.564,-0.997 -1.571,-0.981 -1.577,-0.965C-1.578,-0.962 -1.582,-0.95 -1.583,-0.946C-1.583,-0.945 -1.586,-0.935 -1.587,-0.931C-1.588,-0.928 -1.591,-0.916 -1.592,-0.912C-1.592,-0.911 -1.594,-0.899 -1.595,-0.896C-1.595,-0.894 -1.597,-0.88 -1.598,-0.876C-1.598,-0.875 -1.6,-0.864 -1.6,-0.86C-1.6,-0.858 -1.601,-0.847 -1.601,-0.843C-1.602,-0.841 -1.602,-0.826 -1.602,-0.821C-1.603,-0.821 -1.602,-0.82 -1.602,-0.82C-1.603,-0.816 -1.603,-0.812 -1.603,-0.808C-1.603,-0.805 -1.602,-0.802 -1.602,-0.799C-1.602,-0.798 -1.602,-0.798 -1.602,-0.798C-1.602,-0.792 -1.602,-0.787 -1.602,-0.782C-1.601,-0.776 -1.601,-0.769 -1.6,-0.763C-1.6,-0.759 -1.598,-0.747 -1.598,-0.746C-1.597,-0.741 -1.597,-0.737 -1.596,-0.733C-1.596,-0.732 -1.596,-0.731 -1.596,-0.73C-1.595,-0.725 -1.594,-0.72 -1.593,-0.715C-1.59,-0.703 -1.587,-0.691 -1.584,-0.679C-1.583,-0.675 -1.579,-0.665 -1.579,-0.663C-1.577,-0.659 -1.576,-0.655 -1.574,-0.65C-1.57,-0.639 -1.565,-0.627 -1.56,-0.616C-1.558,-0.611 -1.555,-0.606 -1.553,-0.6C-1.551,-0.596 -1.544,-0.584 -1.543,-0.583C-1.541,-0.579 -1.539,-0.575 -1.537,-0.571C-1.534,-0.566 -1.531,-0.562 -1.528,-0.558C-1.527,-0.555 -1.525,-0.553 -1.524,-0.551C-1.521,-0.546 -1.518,-0.542 -1.515,-0.538C-1.512,-0.534 -1.506,-0.526 -1.506,-0.525C-1.502,-0.521 -1.494,-0.511 -1.493,-0.509C-1.489,-0.505 -1.486,-0.501 -1.482,-0.497C-1.309,-0.304 -1.012,-0.288 -0.819,-0.461L-0.454,-0.788C-0.41,-0.828 -0.361,-0.858 -0.308,-0.879C-0.303,-0.881 -0.298,-0.883 -0.293,-0.884C-0.292,-0.885 -0.28,-0.889 -0.276,-0.89C-0.276,-0.89 -0.275,-0.891 -0.274,-0.891C-0.269,-0.892 -0.263,-0.894 -0.258,-0.895C-0.251,-0.897 -0.244,-0.899 -0.237,-0.901C-0.233,-0.902 -0.228,-0.903 -0.224,-0.903C-0.223,-0.904 -0.223,-0.904 -0.223,-0.904C-0.219,-0.904 -0.206,-0.907 -0.204,-0.907C-0.199,-0.908 -0.195,-0.908 -0.19,-0.909C-0.186,-0.909 -0.176,-0.91 -0.175,-0.91C-0.171,-0.911 -0.166,-0.911 -0.162,-0.912C-0.157,-0.912 -0.153,-0.912 -0.148,-0.912C-0.147,-0.912 -0.147,-0.912 -0.146,-0.912C-0.142,-0.913 -0.137,-0.913 -0.133,-0.913C-0.124,-0.913 -0.114,-0.913 -0.105,-0.912C-0.1,-0.912 -0.096,-0.912 -0.091,-0.911C-0.086,-0.911 -0.082,-0.911 -0.078,-0.91C-0.077,-0.91 -0.076,-0.91 -0.075,-0.91C-0.071,-0.909 -0.067,-0.909 -0.063,-0.908C-0.053,-0.907 -0.044,-0.905 -0.035,-0.904C-0.03,-0.903 -0.025,-0.902 -0.021,-0.901C-0.016,-0.9 -0.006,-0.897 -0.006,-0.897C-0.002,-0.896 0.002,-0.895 0.005,-0.894C0.01,-0.893 0.016,-0.891 0.021,-0.889C0.025,-0.888 0.03,-0.886 0.034,-0.885C0.039,-0.883 0.043,-0.882 0.047,-0.88C0.052,-0.878 0.056,-0.876 0.061,-0.874C0.065,-0.873 0.07,-0.871 0.074,-0.869C0.078,-0.867 0.081,-0.865 0.085,-0.863C0.091,-0.861 0.096,-0.858 0.101,-0.855C0.105,-0.853 0.109,-0.851 0.112,-0.849C0.117,-0.846 0.122,-0.844 0.127,-0.841C0.13,-0.838 0.134,-0.836 0.137,-0.834C0.141,-0.832 0.144,-0.829 0.147,-0.827C0.152,-0.824 0.157,-0.82 0.162,-0.817C0.166,-0.814 0.169,-0.811 0.173,-0.808C0.176,-0.806 0.178,-0.804 0.181,-0.802C0.184,-0.799 0.194,-0.79 0.196,-0.789C0.2,-0.786 0.203,-0.782 0.207,-0.779C0.21,-0.775 0.214,-0.772 0.218,-0.768L-0.5,-0.125Z" style="fill:url(#_Radial2);fill-rule:nonzero;"/>
        </g>
        <g transform="matrix(10.1589,9.11159,-9.11159,10.1589,153.415,162.073)">
            <path d="M-0.824,0.821C-0.837,0.796 -0.849,0.772 -0.862,0.748C-0.876,0.719 -0.89,0.69 -0.903,0.66C-0.932,0.598 -0.957,0.534 -0.981,0.47C-0.99,0.446 -0.998,0.423 -1.006,0.398C-1.009,0.39 -1.011,0.382 -1.014,0.374C-1.021,0.352 -1.027,0.331 -1.033,0.31C-1.053,0.245 -1.069,0.179 -1.082,0.112C-1.089,0.085 -1.094,0.057 -1.1,0.029C-1.1,0.023 -1.101,0.018 -1.102,0.013C-1.106,-0.011 -1.11,-0.036 -1.113,-0.059C-1.114,-0.067 -1.115,-0.074 -1.116,-0.08C-1.119,-0.106 -1.122,-0.131 -1.125,-0.156C-1.125,-0.161 -1.126,-0.165 -1.126,-0.17C-1.099,-0.263 -1.068,-0.354 -1.034,-0.444C-0.946,-0.678 -0.835,-0.904 -0.7,-1.119C-0.742,-1.031 -0.778,-0.941 -0.81,-0.849C-0.814,-0.836 -0.819,-0.823 -0.823,-0.811C-0.83,-0.79 -0.837,-0.768 -0.844,-0.747C-0.846,-0.739 -0.848,-0.732 -0.849,-0.725C-0.856,-0.703 -0.862,-0.682 -0.867,-0.661C-0.871,-0.646 -0.875,-0.631 -0.879,-0.615C-0.884,-0.597 -0.888,-0.578 -0.892,-0.559C-0.894,-0.549 -0.896,-0.538 -0.899,-0.527C-0.903,-0.507 -0.907,-0.486 -0.911,-0.465C-0.913,-0.454 -0.915,-0.444 -0.917,-0.432C-0.921,-0.407 -0.925,-0.381 -0.928,-0.356C-0.929,-0.351 -0.93,-0.346 -0.931,-0.34C-0.934,-0.315 -0.936,-0.291 -0.939,-0.266C-0.94,-0.254 -0.941,-0.244 -0.943,-0.233C-0.945,-0.214 -0.946,-0.195 -0.947,-0.176C-0.948,-0.162 -0.949,-0.149 -0.949,-0.135C-0.951,-0.107 -0.952,-0.079 -0.953,-0.051C-0.953,-0.049 -0.953,-0.049 -0.953,-0.047C-0.953,-0.023 -0.953,0 -0.953,0.023C-0.953,0.04 -0.953,0.056 -0.952,0.071C-0.953,0.073 -0.952,0.075 -0.952,0.077C-0.951,0.107 -0.95,0.136 -0.948,0.165C-0.946,0.2 -0.944,0.235 -0.94,0.269C-0.938,0.294 -0.935,0.319 -0.931,0.345C-0.93,0.352 -0.929,0.358 -0.928,0.366C-0.925,0.389 -0.922,0.414 -0.917,0.438C-0.917,0.444 -0.915,0.448 -0.915,0.454C-0.91,0.482 -0.905,0.51 -0.898,0.537C-0.884,0.604 -0.868,0.67 -0.849,0.735C-0.843,0.756 -0.837,0.778 -0.83,0.799C-0.827,0.807 -0.825,0.815 -0.822,0.823C-0.821,0.824 -0.821,0.825 -0.821,0.826C-0.821,0.824 -0.822,0.822 -0.824,0.821Z" style="fill:url(#_Radial3);fill-rule:nonzero;"/>
        </g>
        <g transform="matrix(1,0,0,-1,0,354.369)">
            <g opacity="0.2">
                <g transform="matrix(1,0,0,1,230.75,142.52)">
                    <path d="M0,-1.82C-0.16,-1.7 -0.31,-1.6 -0.47,-1.49C-0.76,-1.28 -1.06,-1.08 -1.36,-0.89C-1.51,-0.79 -1.65,-0.7 -1.8,-0.61C-2.06,-0.44 -2.33,-0.27 -2.59,-0.12C-2.6,-0.1 -2.62,-0.09 -2.64,-0.08C-2.94,0.09 -3.24,0.27 -3.54,0.43C-4.01,0.7 -4.49,0.95 -4.97,1.19C-5.35,1.39 -5.74,1.57 -6.13,1.75C-6.18,1.77 -6.23,1.8 -6.27,1.81C-6.58,1.96 -6.9,2.09 -7.22,2.22C-7.32,2.27 -7.41,2.31 -7.51,2.35C-7.9,2.5 -8.28,2.65 -8.67,2.8C-12.66,4.27 -16.97,5.07 -21.47,5.07L-40.77,5.07C-46.42,1.28 -53.23,-0.93 -60.55,-0.93L-23.47,-0.93C-18.97,-0.93 -14.66,-1.73 -10.67,-3.2C-10.28,-3.35 -9.9,-3.5 -9.51,-3.65C-9.41,-3.69 -9.32,-3.73 -9.22,-3.78C-8.9,-3.91 -8.58,-4.04 -8.27,-4.19C-8.23,-4.2 -8.18,-4.23 -8.13,-4.25C-7.74,-4.43 -7.35,-4.61 -6.97,-4.81C-6.49,-5.05 -6.01,-5.3 -5.54,-5.57C-5.24,-5.73 -4.94,-5.91 -4.64,-6.08C-4.62,-6.09 -4.6,-6.1 -4.59,-6.12C-4.33,-6.27 -4.06,-6.44 -3.8,-6.61C-3.65,-6.7 -3.51,-6.79 -3.36,-6.89C-2.17,-5.25 -1.04,-3.56 0,-1.82" style="fill-rule:nonzero;"/>
                </g>
            </g>
        </g>
        <g transform="matrix(-138.279,0,0,-138.279,243.78,198.007)">
            <path d="M0.525,-0.361C0.525,-0.361 0.53,-0.361 0.531,-0.36C0.63,-0.359 0.72,-0.32 0.787,-0.256C0.861,-0.187 0.907,-0.088 0.907,0.021C0.907,0.169 0.823,0.297 0.7,0.361C0.701,0.36 0.713,0.351 0.714,0.35C0.717,0.348 0.723,0.343 0.723,0.343C0.726,0.34 0.732,0.335 0.733,0.334C0.735,0.332 0.741,0.326 0.742,0.325C0.745,0.323 0.747,0.32 0.75,0.317C0.75,0.317 0.75,0.317 0.75,0.317C0.752,0.315 0.758,0.308 0.76,0.306C0.76,0.306 0.76,0.306 0.76,0.306C0.762,0.303 0.765,0.3 0.767,0.297C0.77,0.294 0.772,0.29 0.775,0.287C0.777,0.284 0.782,0.277 0.782,0.277C0.784,0.274 0.785,0.272 0.787,0.269C0.787,0.268 0.788,0.268 0.788,0.267C0.79,0.264 0.792,0.261 0.793,0.258C0.798,0.251 0.802,0.243 0.805,0.236C0.807,0.233 0.81,0.226 0.81,0.225C0.812,0.222 0.813,0.219 0.814,0.216C0.817,0.209 0.82,0.2 0.823,0.192C0.824,0.188 0.825,0.185 0.826,0.181C0.827,0.177 0.829,0.168 0.829,0.167C0.83,0.164 0.831,0.161 0.831,0.158C0.832,0.155 0.834,0.143 0.834,0.142C0.835,0.138 0.835,0.134 0.835,0.131C0.836,0.128 0.836,0.121 0.836,0.12C0.837,0.116 0.837,0.113 0.837,0.109C0.837,0.108 0.837,0.107 0.837,0.106C0.837,0.102 0.837,0.099 0.837,0.095C0.837,-0.085 0.691,-0.231 0.511,-0.231L0.268,-0.231C0.227,-0.231 0.187,-0.238 0.151,-0.252C0.147,-0.253 0.138,-0.257 0.137,-0.257C0.134,-0.258 0.132,-0.259 0.129,-0.261C0.128,-0.261 0.128,-0.261 0.127,-0.261C0.124,-0.263 0.12,-0.265 0.117,-0.266C0.112,-0.269 0.108,-0.271 0.104,-0.273C0.101,-0.275 0.098,-0.276 0.095,-0.278C0.095,-0.278 0.095,-0.278 0.095,-0.278C0.093,-0.28 0.085,-0.285 0.084,-0.285C0.081,-0.287 0.078,-0.289 0.076,-0.291C0.073,-0.293 0.071,-0.294 0.068,-0.296C0.068,-0.296 0.068,-0.297 0.067,-0.297C0.065,-0.299 0.062,-0.301 0.06,-0.303C0.057,-0.305 0.055,-0.307 0.052,-0.308C0.052,-0.309 0.052,-0.309 0.051,-0.31C0.049,-0.311 0.047,-0.313 0.044,-0.315C0.04,-0.32 0.035,-0.324 0.03,-0.329C0.028,-0.331 0.026,-0.333 0.023,-0.336C0.021,-0.338 0.019,-0.34 0.017,-0.342C0.017,-0.343 0.016,-0.343 0.016,-0.344C0.014,-0.346 0.012,-0.348 0.01,-0.35C0.007,-0.354 0.004,-0.357 0.002,-0.361L0.525,-0.361Z" style="fill:url(#_Linear4);fill-rule:nonzero;"/>
        </g>
    </g>
    <defs>
        <linearGradient id="_Linear1" x1="0" y1="0" x2="1" y2="0" gradientUnits="userSpaceOnUse" gradientTransform="matrix(1,5.55112e-17,5.55112e-17,-1,0,0.0291693)"><stop offset="0" style="stop-color:rgb(9,191,254);stop-opacity:1"/><stop offset="0" style="stop-color:rgb(9,191,254);stop-opacity:1"/><stop offset="1" style="stop-color:rgb(45,20,183);stop-opacity:1"/></linearGradient>
        <radialGradient id="_Radial2" cx="0" cy="0" r="1" gradientUnits="userSpaceOnUse" gradientTransform="matrix(1,0,0,-1,0,-0.955961)"><stop offset="0" style="stop-color:rgb(35,173,254);stop-opacity:1"/><stop offset="0" style="stop-color:rgb(35,173,254);stop-opacity:1"/><stop offset="1" style="stop-color:rgb(37,0,149);stop-opacity:1"/></radialGradient>
        <radialGradient id="_Radial3" cx="0" cy="0" r="1" gradientUnits="userSpaceOnUse" gradientTransform="matrix(1,5.55112e-17,5.55112e-17,-1,0,-0.292723)"><stop offset="0" style="stop-color:rgb(35,173,254);stop-opacity:1"/><stop offset="0" style="stop-color:rgb(35,173,254);stop-opacity:1"/><stop offset="1" style="stop-color:rgb(37,0,149);stop-opacity:1"/></radialGradient>
        <linearGradient id="_Linear4" x1="0" y1="0" x2="1" y2="0" gradientUnits="userSpaceOnUse" gradientTransform="matrix(1,0,0,-1,0,8.48143e-06)"><stop offset="0" style="stop-color:rgb(35,173,254);stop-opacity:1"/><stop offset="0" style="stop-color:rgb(35,173,254);stop-opacity:1"/><stop offset="1" style="stop-color:rgb(37,0,149);stop-opacity:1"/></linearGradient>
    </defs>
</svg>
