<?xml version="1.0" encoding="UTF-8" standalone="no"?>
<!DOCTYPE svg PUBLIC "-//W3C//DTD SVG 1.1//EN" "http://www.w3.org/Graphics/SVG/1.1/DTD/svg11.dtd">
<svg width="100%" height="100%" viewBox="0 0 1305 1842" version="1.1" xmlns="http://www.w3.org/2000/svg" xmlns:xlink="http://www.w3.org/1999/xlink" xml:space="preserve" xmlns:serif="http://www.serif.com/" style="fill-rule:evenodd;clip-rule:evenodd;stroke-linejoin:round;stroke-miterlimit:2;">
    <g transform="matrix(4.16667,0,0,4.16667,0,0)">
        <path d="M167.019,0.983C167.019,0.983 119.258,79.838 131.037,163.647C139.995,227.376 162.521,266.341 137.035,340.551C137.035,340.551 179.011,287.649 179.011,210.695C179.011,165.918 139.283,72.196 167.019,0.983Z" style="fill:rgb(34,30,31);fill-rule:nonzero;"/>
        <path d="M8.96,428.54C8.332,428.199 7.66,427.891 7.006,427.578C5.039,426.624 3.283,425.619 3.654,423.607C4.123,421.103 5.87,420.575 7.175,420.575C8.297,420.575 9.666,421.17 10.556,421.631C11.118,421.917 11.489,422.15 11.489,422.15L12.144,418.967C12.144,418.967 10.881,418.093 9.678,417.742C8.475,417.393 3.426,416.459 0.936,420.964C-1.778,425.881 1.97,429.005 5.056,430.681C5.081,430.693 5.106,430.702 5.132,430.724C7.647,432.07 10.754,433.234 10.261,435.881C9.796,438.385 7.559,438.837 6.259,438.837C4.431,438.837 1.345,437.067 1.345,437.067L0.256,440.449C0.256,440.449 1.426,441.306 2.628,441.651C3.832,442.002 10.033,443.016 12.523,438.511C15.238,433.594 12.046,430.212 8.96,428.54Z" style="fill:rgb(25,24,24);fill-rule:nonzero;"/>
        <path d="M48.401,421.546L59.161,421.546L59.161,418.109L44.816,418.109L44.816,441.424L59.161,441.424L59.161,437.987L48.401,437.987L48.401,430.969L55.957,430.969L55.957,427.535L48.401,427.535L48.401,421.546Z" style="fill:rgb(25,24,24);fill-rule:nonzero;"/>
        <path d="M99.543,429.356L94.042,429.356L94.042,420.841L97.842,420.841C97.842,420.841 102.832,420.807 102.832,425.105C102.832,428.748 99.543,429.356 99.543,429.356ZM96.579,418.109L90.678,418.109L90.678,441.424L94.042,441.424L94.042,431.825L99.323,431.825C99.323,431.825 105.719,431.866 105.719,424.699C105.719,417.772 96.579,418.109 96.579,418.109Z" style="fill:rgb(25,24,24);fill-rule:nonzero;"/>
        <path d="M152.91,427.266L140.862,427.266L140.862,418.109L137.274,418.109L137.274,441.424L140.862,441.424L140.862,430.702L152.91,430.702L152.91,441.424L156.494,441.424L156.494,418.055L152.91,418.055L152.91,427.266Z" style="fill:rgb(25,24,24);fill-rule:nonzero;"/>
        <path d="M200.096,438.373C195.389,438.373 191.569,434.557 191.569,429.85C191.569,425.143 195.389,421.326 200.096,421.326C204.803,421.326 208.619,425.143 208.619,429.85C208.619,434.557 204.803,438.373 200.096,438.373ZM200.092,417.852C193.468,417.852 188.095,423.222 188.095,429.85C188.095,436.477 193.468,441.847 200.092,441.847C206.72,441.847 212.094,436.477 212.094,429.85C212.094,423.222 206.72,417.852 200.092,417.852Z" style="fill:rgb(25,24,24);fill-rule:nonzero;"/>
        <path d="M246.961,428.798L246.961,420.841L250.766,420.841C250.766,420.841 255.303,420.807 255.303,425.105C255.303,428.149 252.339,428.798 252.339,428.798L246.961,428.798ZM254.041,430.85C254.041,430.85 258.195,429.879 258.195,424.48C258.195,417.553 250.335,418.109 250.335,418.109L243.602,418.109L243.602,441.424L246.961,441.424L246.961,431.268L250.512,431.268L257.713,441.424L261.635,441.424L254.041,430.85Z" style="fill:rgb(25,24,24);fill-rule:nonzero;"/>
        <path d="M298.8,433.894L302.169,422.4L302.966,422.4L307.028,433.894L298.8,433.894ZM304.453,418.038L301.375,418.038L293.152,441.424L296.226,441.424L298.205,435.775L307.624,435.775L309.704,441.424L312.773,441.424L304.453,418.038Z" style="fill:rgb(25,24,24);fill-rule:nonzero;"/>
    </g>
</svg>
