<svg width="87" height="87" viewBox="0 0 87 87" fill="none" xmlns="http://www.w3.org/2000/svg">
<g clip-path="url(#clip0_43_84)">
<path d="M73.0464 34.3086C73.0939 34.3566 73.1418 34.4047 73.1891 34.4527C76.3681 37.4297 79.5468 40.4067 82.7266 43.3839V34.8368H86.4269V52.7952C83.2007 49.77 79.9744 46.6968 76.7004 43.6718V52.1711H73.0464V34.3086Z" fill="black"/>
<path d="M1.78097 37.0938C2.77735 35.6051 4.53306 34.789 6.24098 34.5969C8.85045 34.3566 11.6974 34.789 13.7378 36.6135C12.8836 37.4297 11.9822 38.1981 11.1279 39.0142C10.1792 38.1499 8.89812 37.7179 7.61702 37.7179C6.66792 37.6696 5.67154 38.0061 5.14978 38.8222C4.77011 39.3986 4.91234 40.2626 5.43449 40.6949C6.28825 41.4152 7.37958 41.7511 8.42364 42.1353C9.94178 42.6158 11.4602 43.1437 12.6937 44.2001C14.4018 45.5928 14.7813 48.4255 13.453 50.2021C12.3141 51.739 10.4639 52.5552 8.61341 52.6987C6.95264 52.7466 5.29187 52.6987 3.72619 52.1231C2.54004 51.739 1.49625 51.0663 0.5 50.3457C1.35376 49.5297 2.25532 48.7132 3.10934 47.8972C4.58021 49.0497 6.47815 49.6739 8.32869 49.4338C9.13517 49.2902 9.98945 48.8576 10.274 48.0414C10.4639 47.3215 10.0367 46.601 9.41989 46.2646C7.52208 45.1601 5.29187 44.9207 3.44134 43.7199C2.44496 43.0957 1.5912 42.1353 1.25881 40.9832C0.879536 39.6386 1.02163 38.1981 1.78097 37.0938Z" fill="black"/>
<path d="M20.5701 34.885H24.2708V41.7511H31.7676V34.885H35.5161V52.2666H31.7676V44.5844H24.2708V52.2666H20.5701V34.885Z" fill="black"/>
<path d="M42.7752 34.885H55.3963V37.6696H46.429V41.7993H55.2538V44.5364H46.429V49.2901H55.3963V52.2666H42.7752V34.885Z" fill="black"/>
<path d="M65.6925 34.885H61.9914V52.2666H65.6925V34.885Z" fill="black"/>
</g>
<defs>
<clipPath id="clip0_43_84">
<rect width="86" height="87" fill="white" transform="translate(0.5)"/>
</clipPath>
</defs>
</svg>
