<svg width="89" height="88" viewBox="0 0 89 88" fill="none" xmlns="http://www.w3.org/2000/svg">
<g clip-path="url(#clip0_47_160)">
<path d="M77.7869 40.5413C78.2768 40.5413 78.6801 40.287 78.7346 39.9584L79.2183 34.4974C79.2183 33.9576 78.5849 33.5145 77.7885 33.5145C76.9928 33.5145 76.36 33.9576 76.36 34.4975L76.8434 39.9584C76.8966 40.2869 77.2999 40.5413 77.7886 40.5413H77.7869ZM74.8304 42.247C75.0761 41.8239 75.0576 41.3485 74.7986 41.1372L70.3022 37.9886C69.8347 37.7183 69.1338 38.0436 68.736 38.7323C68.3368 39.4202 68.4075 40.1885 68.8738 40.4588L73.8525 42.773C74.1638 42.8882 74.5881 42.6665 74.8319 42.2438L74.8304 42.247ZM80.7461 42.2441C80.9914 42.6668 81.4136 42.8886 81.7252 42.7733L86.7039 40.4591C87.1731 40.1888 87.2398 39.4205 86.8443 38.7326C86.4445 38.0446 85.7423 37.7186 85.2761 37.9889L80.7795 41.1375C80.5224 41.3485 80.5033 41.8243 80.7476 42.2473L80.7461 42.2441ZM77.7869 47.3629C78.2768 47.3629 78.6801 47.615 78.7346 47.9439L79.2183 53.4041C79.2183 53.9455 78.5849 54.3877 77.7885 54.3877C76.9928 54.3877 76.36 53.9455 76.36 53.4041L76.8434 47.9439C76.8966 47.615 77.2999 47.3629 77.7886 47.3629H77.7869ZM80.7461 45.6568C80.9914 45.2329 81.4136 45.0131 81.7252 45.1296L86.7039 47.4422C87.1731 47.7128 87.2398 48.4818 86.8443 49.1702C86.4445 49.8561 85.7423 50.1829 85.2761 49.9131L80.7795 46.7673C80.5224 46.5547 80.5033 46.0786 80.7476 45.6559H80.7457M74.8304 45.6562C75.0761 46.0786 75.0576 46.5547 74.7986 46.7677L70.3022 49.9133C69.8347 50.1832 69.1338 49.8563 68.736 49.1705C68.3368 48.4821 68.4075 47.7131 68.8738 47.4425L73.8525 45.1299C74.1638 45.0133 74.5881 45.2331 74.8319 45.6572H74.8304" fill="#FDBB30"/>
<path d="M49.4251 46.7573C49.4251 46.9249 49.4102 47.0977 49.3642 47.2495C49.1735 47.88 48.5196 48.4131 47.7016 48.4131C47.0195 48.4131 46.4777 48.0263 46.4777 47.2094C46.4777 45.959 47.8563 45.6138 49.4255 45.6224L49.4251 46.7572V46.7573ZM51.8866 44.5784C51.8866 42.5166 51.0041 40.7024 48.0223 40.7024C46.4916 40.7024 45.2768 41.1316 44.6138 41.5141L45.0994 43.1716C45.7054 42.7897 46.6712 42.4735 47.5852 42.4735C49.0977 42.4694 49.3454 43.3286 49.3454 43.8785V44.0087C46.0484 44.0038 43.9643 45.1435 43.9643 47.465C43.9643 48.8836 45.0258 50.2123 46.871 50.2123C48.0048 50.2123 48.9544 49.7605 49.5227 49.0361H49.5789C49.5789 49.0361 49.9549 50.6088 52.0309 50.0071C51.9226 49.3531 51.887 48.6549 51.887 47.8153L51.8867 44.5784M0.516663 37.8947C0.516663 37.8947 2.67114 46.7077 3.01517 48.138C3.41649 49.8075 4.13979 50.4221 6.22419 50.0071L7.56938 44.5434C7.91049 43.1856 8.13877 42.2175 8.35856 40.8377H8.39682C8.55112 42.2321 8.77003 43.1898 9.05073 44.5479C9.05073 44.5479 9.59805 47.0285 9.87884 48.3309C10.1599 49.633 10.9423 50.4541 12.9842 50.0071L16.1897 37.8943H13.6024L12.5075 43.1315C12.2132 44.6553 11.9464 45.8474 11.7404 47.2411H11.7038C11.5167 45.8597 11.2785 44.7162 10.9796 43.2312L9.84058 37.8943H7.14434L5.92535 43.0966C5.58034 44.6779 5.2568 45.9543 5.05184 47.3016H5.01456C4.80414 46.0329 4.52404 44.4281 4.2209 42.8982C4.2209 42.8982 3.49721 39.177 3.24267 37.8943L0.516663 37.8947ZM21.0839 46.7573C21.0839 46.9249 21.0689 47.0977 21.0223 47.2495C20.832 47.88 20.1777 48.4131 19.3596 48.4131C18.6774 48.4131 18.1364 48.0263 18.1364 47.2094C18.1364 45.959 19.5146 45.6138 21.0842 45.6224L21.0839 46.7572V46.7573ZM23.545 44.5784C23.545 42.5166 22.6625 40.7024 19.6813 40.7024C18.1503 40.7024 16.9345 41.1316 16.2718 41.5141L16.7569 43.1716C17.3628 42.7897 18.3286 42.4735 19.2429 42.4735C20.7564 42.4694 21.0041 43.3286 21.0041 43.8785V44.0087C17.7058 44.0038 15.6227 45.1435 15.6227 47.465C15.6227 48.8836 16.6836 50.2123 18.5274 50.2123C19.6627 50.2123 20.6118 49.7605 21.1808 49.0361H21.2362C21.2362 49.0361 21.6133 50.6088 23.6889 50.0071C23.5803 49.3531 23.545 48.6549 23.545 47.8153V44.5784ZM27.6525 47.4359V37.8947H25.1882V50.0075H27.6525V47.4359ZM59.8907 37.8947V46.8301C59.8907 48.0626 60.1234 48.9251 60.6197 49.453C61.0546 49.9146 61.7691 50.2133 62.626 50.2133C63.3549 50.2133 64.0715 50.0744 64.4097 49.9492L64.3778 48.0273C64.1262 48.0887 63.8373 48.1384 63.4419 48.1384C62.6021 48.1384 62.3213 47.6013 62.3213 46.4954V43.0765H64.4673V40.7587H62.3213V37.8947H59.8907ZM53.5298 40.9079V50.0075H56.072V45.3484C56.072 45.0965 56.0872 44.8771 56.1271 44.6764C56.3152 43.6999 57.0628 43.0765 58.1366 43.0765C58.431 43.0765 58.6417 43.1085 58.87 43.1409V40.7587C58.6784 40.7206 58.5484 40.7027 58.3101 40.7027C57.3614 40.7027 56.2821 41.3138 55.8291 42.6247H55.7604V40.9079H53.5298ZM29.378 40.9079V50.0075H31.8548V44.6715C31.8548 44.4211 31.8843 44.1563 31.9711 43.9267C32.1764 43.3895 32.6772 42.7603 33.4765 42.7603C34.4764 42.7603 34.9433 43.6037 34.9433 44.8211V50.0068H37.4181V44.6058C37.4181 44.3669 37.4508 44.0789 37.5215 43.8683C37.7247 43.2568 38.2642 42.7596 39.0073 42.7596C40.0205 42.7596 40.5068 43.5883 40.5068 45.0211V50.0065H42.9833V44.6468C42.9833 41.8207 41.5457 40.7019 39.9226 40.7019C39.2045 40.7019 38.6371 40.8814 38.1239 41.1954C37.693 41.4604 37.3065 41.8359 36.9693 42.3294H36.9327C36.5413 41.3488 35.6205 40.7023 34.4205 40.7023C32.879 40.7023 32.1861 41.4825 31.7659 42.144H31.729V40.9076H29.378" fill="#1A75CF"/>
</g>
<defs>
<clipPath id="clip0_47_160">
<rect width="88" height="88" fill="white" transform="translate(0.5)"/>
</clipPath>
</defs>
</svg>
